# xmcd CD database file
#
# Track frame offsets:
#	183
#	33103
#	49160
#	76570
#	92355
#	140778
#	163105
#	176195
#	203013
#	218855
#	242255
#
# Disc length: 3569 seconds
#
# Revision: 0
# Processed by: cddbd v1.4PL0 Copyright (c) Steve Scherf et al.
# Submitted via: CDex 1.50beta10
#
DISCID=870def0b
DTITLE=Luther "Snake Boy" Johnson - Get Down to the Nitty Gritty
DYEAR=1991
DGENRE=Blues
TTITLE0=Lonesome in My Bedroom
TTITLE1=Got My Mojo Working
TTITLE2=Woman You Don't Have to Go
TTITLE3=Get Down to the Nitty Gritty
TTITLE4=Long Distance Call
TTITLE5=Rock Me Baby
TTITLE6=Don't Start Me Talkin'
TTITLE7=Take It off Him and Put It on Me
TTITLE8=You Don't Have to Go
TTITLE9=Hoochie Coochie Man
TTITLE10=You Got Me Running
EXTD=YEAR: 1991
EXTT0=
EXTT1=
EXTT2=
EXTT3=
EXTT4=
EXTT5=
EXTT6=
EXTT7=
EXTT8=
EXTT9=
EXTT10=
PLAYORDER=
